<?xml version="1.0" encoding="UTF-8" standalone="no"?>
<svg
   viewBox="19.838 10 470 490"
   width="470"
   height="490"
   version="1.1"
   id="svg7"
   sodipodi:docname="logo.svg"
   inkscape:version="1.3.2 (091e20e, 2023-11-25, custom)"
   xmlns:inkscape="http://www.inkscape.org/namespaces/inkscape"
   xmlns:sodipodi="http://sodipodi.sourceforge.net/DTD/sodipodi-0.dtd"
   xmlns="http://www.w3.org/2000/svg"
   xmlns:svg="http://www.w3.org/2000/svg">
  <defs
     id="defs7" />
  <sodipodi:namedview
     id="namedview7"
     pagecolor="#ffffff"
     bordercolor="#999999"
     borderopacity="1"
     inkscape:showpageshadow="2"
     inkscape:pageopacity="0"
     inkscape:pagecheckerboard="0"
     inkscape:deskcolor="#d1d1d1"
     showguides="true"
     showgrid="false"
     inkscape:zoom="2"
     inkscape:cx="191.5"
     inkscape:cy="234.25"
     inkscape:window-width="2560"
     inkscape:window-height="1369"
     inkscape:window-x="1912"
     inkscape:window-y="-8"
     inkscape:window-maximized="1"
     inkscape:current-layer="svg7">
    <inkscape:grid
       id="grid8"
       units="px"
       originx="0"
       originy="0"
       spacingx="1"
       spacingy="1"
       empcolor="#0099e5"
       empopacity="0.30196078"
       color="#0099e5"
       opacity="0.14901961"
       empspacing="5"
       dotted="false"
       gridanglex="30"
       gridanglez="30"
       visible="false" />
  </sodipodi:namedview>
  <path
     style="fill:#1f1f1f;stroke:#1f1f1f;stroke-width:10px;stroke-linecap:round;stroke-linejoin:round"
     d="m 254.838,15 230,120.00001 v 240 l -230,120 m 0,0 -230,-120 v -240 L 254.838,15"
     id="path1">
    <title
       id="title1">Background</title>
  </path>
  <g
     transform="matrix(1.0768978,0,8.2263782e-4,1.0771708,-19.979221,0.36889968)"
     id="g5">
    <title
       id="title2">Invoice</title>
    <polygon
       style="fill:none;stroke:#f2f2f2;stroke-width:10px;stroke-linecap:round;stroke-linejoin:round"
       points="202.743,371.333 216,380 229,371.333 242,380 255,371.333 268,380 281,371.333 294,380 307,371.333 320,380 320,250 190,250 190,380 "
       id="polygon2"
       inkscape:label="polygon2" />
    <line
       style="fill:#d8d8d8;stroke:#f2f2f2;stroke-width:10px;stroke-linecap:round"
       x1="210"
       y1="295"
       x2="300"
       y2="295"
       id="line2" />
    <line
       style="fill:#d8d8d8;stroke:#f2f2f2;stroke-width:10px;stroke-linecap:round"
       x1="210"
       y1="315"
       x2="300"
       y2="315"
       id="line3" />
    <line
       style="fill:#d8d8d8;stroke:#f2f2f2;stroke-width:10px;stroke-linecap:round"
       x1="210"
       y1="335"
       x2="275"
       y2="335"
       id="line4" />
    <line
       style="fill:#d8d8d8;stroke:#f2f2f2;stroke-width:10px;stroke-linecap:round"
       x1="210"
       y1="354.901"
       x2="275"
       y2="354.89999"
       id="line5" />
  </g>
  <g
     transform="matrix(1.0768978,0,8.2263782e-4,1.0771708,-19.979221,0.36889968)"
     id="g7">
    <title
       id="title5">Wizard Hat</title>
    <path
       style="fill:#1f1f1f;stroke:#f2f2f2;stroke-width:10px;stroke-linecap:round;stroke-miterlimit:1"
       d="M 380,249.197 C 380,220 130,220 130,249.197 130,280 380,280.001 380,249.196 Z"
       id="path5" />
    <path
       style="fill:#1f1f1f;stroke:#f2f2f2;stroke-width:10px;stroke-linecap:round;stroke-linejoin:round"
       d="m 330,245 c 0,10 -150,10 -150,0 l 50,-110 -20,-70 80,60 40,120"
       id="path6" />
    <path
       style="fill:#000000;fill-opacity:0.0777778;stroke:#f2f2f2;stroke-width:15.0001;stroke-dasharray:none"
       d="m 198.867,203.082 c 8.617,17.261 99.233,17.261 116.507,0"
       id="path7" />
  </g>
</svg>
